<svg width="16" height="16" viewBox="0 0 16 16" fill="none" xmlns="http://www.w3.org/2000/svg">
<rect x="0.25" y="0.25" width="15.5" height="15.5" rx="0.75" fill="#1ABA9A" stroke="white" stroke-width="0.5"/>
<path d="M1.22791 10L1.81591 5.863H2.92891L2.34091 10H1.22791ZM2.97764 10L3.56564 5.863H4.53164L4.76264 7.788L5.03564 5.863H6.00864L5.42064 10H4.46164L4.19564 8.285L3.95064 10H2.97764ZM6.12873 10L6.71673 5.863H8.34073C8.54606 5.863 8.70706 5.89333 8.82373 5.954C8.94506 6.01467 9.02906 6.09867 9.07573 6.206C9.1224 6.30867 9.13406 6.43 9.11073 6.57L8.75373 9.125C8.72573 9.34433 8.6604 9.51933 8.55773 9.65C8.45506 9.776 8.32206 9.867 8.15873 9.923C7.9954 9.97433 7.80406 10 7.58473 10H6.12873ZM7.37473 9.44H7.47973C7.51706 9.44 7.5474 9.426 7.57073 9.398C7.59873 9.36533 7.6174 9.30933 7.62673 9.23L7.98373 6.689C7.99306 6.60967 7.9884 6.556 7.96973 6.528C7.95573 6.49533 7.93006 6.479 7.89273 6.479H7.78773L7.37473 9.44ZM9.22514 10L9.81314 5.863H11.8151L11.7031 6.64H10.8631L10.7511 7.445H11.5211L11.3951 8.32H10.6251L10.4991 9.244H11.3391L11.2271 10H9.22514ZM11.6618 10L12.5368 7.851L12.2638 5.863H13.3768L13.4678 6.948L13.8248 5.863H15.0078L14.1888 7.851L14.4058 10H13.2928L13.2018 8.922L12.8448 10H11.6618Z" fill="white"/>
</svg>
