<svg width="10" height="10" viewBox="0 0 10 10" fill="none" xmlns="http://www.w3.org/2000/svg">
<path d="M4.55404 9.47917C4.35404 9.47917 4.15407 9.42917 3.97073 9.32917C3.5999 9.12083 3.37904 8.75 3.37904 8.32917V6.1C3.37904 5.8875 3.24154 5.575 3.11237 5.4125L1.52904 3.75001C1.26654 3.48751 1.06238 3.02917 1.06238 2.69167V1.72502C1.06238 1.05419 1.57072 0.529175 2.21655 0.529175H7.77488C8.41238 0.529175 8.92904 1.04585 8.92904 1.68335V2.60835C8.92904 3.04585 8.66655 3.55001 8.41655 3.79584C8.29571 3.91667 8.09571 3.91667 7.97488 3.79584C7.85404 3.67501 7.85404 3.47501 7.97488 3.35418C8.12904 3.20001 8.30404 2.85418 8.30404 2.60835V1.68335C8.30404 1.39168 8.06654 1.15417 7.77488 1.15417H2.21655C1.92072 1.15417 1.68738 1.40419 1.68738 1.72502V2.69167C1.68738 2.84584 1.81238 3.15002 1.97488 3.31252L3.57906 5C3.79156 5.2625 3.99987 5.70417 3.99987 6.1V8.32917C3.99987 8.60417 4.18738 8.7375 4.27071 8.78333C4.44988 8.88333 4.66238 8.87917 4.82904 8.77917L5.41238 8.40417C5.55821 8.3125 5.74988 8.35417 5.84571 8.5C5.93738 8.64583 5.89571 8.8375 5.75404 8.93333L5.16654 9.3125C4.97904 9.42083 4.76654 9.47917 4.55404 9.47917Z" fill="#777777"/>
<path d="M5.7042 7.87083C5.54586 7.87083 5.39586 7.8125 5.28753 7.70416C5.15836 7.575 5.10003 7.3875 5.1292 7.19166L5.20836 6.62916C5.2292 6.48333 5.3167 6.3125 5.42086 6.20833L6.89586 4.73333C7.09586 4.53333 7.2917 4.42916 7.5042 4.40833C7.76253 4.38333 8.02086 4.49166 8.26253 4.73333C8.5042 4.975 8.61253 5.22916 8.58753 5.49166C8.5667 5.7 8.45836 5.9 8.26253 6.1L6.78753 7.575C6.68336 7.67916 6.50836 7.76666 6.36253 7.7875L5.80003 7.86666C5.7667 7.87083 5.73753 7.87083 5.7042 7.87083ZM7.57503 5.025C7.57086 5.025 7.5667 5.025 7.56253 5.025C7.5042 5.02916 7.42503 5.07916 7.33753 5.17083L5.86253 6.64583C5.85003 6.65833 5.8292 6.7 5.8292 6.71667L5.7542 7.2375L6.27503 7.1625C6.2917 7.15833 6.33336 7.1375 6.34586 7.125L7.82086 5.65C7.90836 5.5625 7.96253 5.48333 7.9667 5.425C7.97503 5.34166 7.8917 5.24166 7.82086 5.17083C7.7542 5.10416 7.65836 5.025 7.57503 5.025Z" fill="#777777"/>
<path d="M7.82909 6.4C7.79993 6.4 7.7708 6.39583 7.7458 6.3875C7.1958 6.23333 6.75826 5.79583 6.60409 5.24583C6.55826 5.07917 6.65409 4.90833 6.82076 4.85833C6.98743 4.8125 7.15826 4.90833 7.20409 5.075C7.29993 5.41667 7.57076 5.6875 7.91243 5.78333C8.07909 5.82917 8.17497 6.00417 8.12913 6.17083C8.09163 6.3125 7.96659 6.4 7.82909 6.4Z" fill="#777777"/>
</svg>
